<svg width="120" height="31" viewBox="0 0 120 31" fill="none" xmlns="http://www.w3.org/2000/svg">
<path d="M7.82 8.292C5.228 8.436 3.812 8.508 3.572 8.508C2.996 8.508 2.42 8.16 1.844 7.464C1.268 6.744 0.98 6 0.98 5.232C0.98 4.056 4.4 3.468 11.24 3.468C14.744 3.468 17.324 3.828 18.98 4.548C20.636 5.268 21.464 6.144 21.464 7.176C21.464 7.488 21.284 7.788 20.924 8.076C20.564 8.34 20.108 8.472 19.556 8.472C19.004 8.472 17.996 8.436 16.532 8.364C15.068 8.292 13.736 8.244 12.536 8.22C12.632 8.508 12.68 8.844 12.68 9.228C12.68 9.612 12.536 10.368 12.248 11.496C11.984 12.624 11.6 14.196 11.096 16.212C10.592 18.204 10.04 20.628 9.44 23.484C8.84 26.316 8.42 28.008 8.18 28.56C7.964 29.088 7.748 29.352 7.532 29.352C7.028 29.352 6.392 28.896 5.624 27.984C4.88 27.048 4.508 26.292 4.508 25.716C4.508 25.14 5 22.764 5.984 18.588C6.968 14.388 7.58 10.956 7.82 8.292ZM23.982 2.424C23.982 1.416 24.378 0.911999 25.17 0.911999C25.818 0.911999 26.562 1.452 27.402 2.532C28.242 3.612 28.662 4.536 28.662 5.304C28.662 6.072 28.506 7.152 28.194 8.544C27.882 9.936 27.558 11.208 27.222 12.36C26.91 13.512 26.43 15.156 25.782 17.292C25.134 19.404 24.69 20.88 24.45 21.72C26.01 18.552 27.654 15.972 29.382 13.98C31.134 11.988 32.598 10.992 33.774 10.992C34.518 10.992 35.37 11.652 36.33 12.972C37.29 14.268 37.77 15.444 37.77 16.5C37.77 17.532 37.578 19.044 37.194 21.036C36.81 23.028 36.138 24.948 35.178 26.796C34.218 28.644 33.234 29.568 32.226 29.568C31.434 29.568 31.038 29.004 31.038 27.876C31.038 27.06 31.278 25.728 31.758 23.88C32.454 21.12 32.802 19.44 32.802 18.84C32.802 18.24 32.706 17.94 32.514 17.94C31.122 17.94 29.082 20.256 26.394 24.888C25.482 26.472 24.714 27.648 24.09 28.416C23.49 29.184 22.914 29.568 22.362 29.568C21.81 29.568 21.138 29.124 20.346 28.236C19.578 27.348 19.194 26.664 19.194 26.184C19.194 25.68 19.29 24.948 19.482 23.988C19.698 23.028 20.01 21.66 20.418 19.884C20.85 18.108 21.546 14.892 22.506 10.236C23.49 5.556 23.982 2.952 23.982 2.424ZM55.8952 17.724C55.8952 18.9 55.0912 19.956 53.4832 20.892C51.8992 21.828 50.2672 22.296 48.5872 22.296C46.9072 22.296 45.5272 22.176 44.4472 21.936C44.2312 22.584 44.1232 23.232 44.1232 23.88C44.1232 24.528 44.2312 24.996 44.4472 25.284C44.6632 25.548 45.2032 25.68 46.0672 25.68C47.8672 25.68 49.4032 25.512 50.6752 25.176C51.9712 24.84 52.6432 24.672 52.6912 24.672C53.6752 24.672 54.1672 24.996 54.1672 25.644C54.1672 26.58 53.3872 27.468 51.8272 28.308C50.2912 29.148 48.5032 29.568 46.4632 29.568C44.4472 29.568 42.8272 28.932 41.6032 27.66C40.3792 26.388 39.7672 24.888 39.7672 23.16C39.7672 21.408 40.2712 19.584 41.2792 17.688C42.3112 15.792 43.5952 14.208 45.1312 12.936C46.6672 11.64 48.1912 10.992 49.7032 10.992C51.2392 10.992 52.6552 11.748 53.9512 13.26C55.2472 14.748 55.8952 16.236 55.8952 17.724ZM51.7192 17.148C51.7192 16.908 51.4672 16.56 50.9632 16.104C50.4592 15.648 49.9792 15.42 49.5232 15.42C49.0912 15.42 48.5272 15.744 47.8312 16.392C47.1352 17.016 46.4752 17.832 45.8512 18.84C46.0672 18.864 46.3792 18.876 46.7872 18.876C50.0752 18.876 51.7192 18.3 51.7192 17.148ZM81.5733 10.992C82.5093 10.992 83.2893 11.616 83.9133 12.864C84.5373 14.112 84.8493 15.252 84.8493 16.284C84.8493 17.316 84.6453 18.852 84.2373 20.892C83.8533 22.908 83.2293 24.864 82.3653 26.76C81.5253 28.632 80.6133 29.568 79.6293 29.568C78.8373 29.568 78.4413 29.028 78.4413 27.948C78.4413 26.868 78.7533 25.104 79.3773 22.656C80.0013 20.208 80.3133 18.6 80.3133 17.832C80.3133 17.064 80.1933 16.68 79.9533 16.68C79.4493 16.68 78.8493 17.232 78.1533 18.336C77.4573 19.44 76.6173 20.916 75.6333 22.764C74.6733 24.612 74.0733 25.8 73.8333 26.328C73.5933 26.856 73.3893 27.276 73.2213 27.588C73.0773 27.9 72.9093 28.224 72.7173 28.56C71.9493 29.832 70.9293 29.832 69.6573 28.56C69.0093 27.912 68.6853 27.324 68.6853 26.796C68.6853 26.7 68.8773 25.788 69.2613 24.06C69.6693 22.308 69.8733 20.316 69.8733 18.084C69.8733 17.148 69.7653 16.68 69.5493 16.68C69.2613 16.68 68.9253 16.968 68.5413 17.544C68.1573 18.12 67.5693 19.164 66.7773 20.676C65.9853 22.188 65.3013 23.436 64.7253 24.42C62.7093 27.852 61.1733 29.568 60.1173 29.568C59.5893 29.568 58.9293 29.124 58.1373 28.236C57.3693 27.348 56.9853 26.676 56.9853 26.22C56.9853 25.74 57.2493 24.612 57.7773 22.836C58.3293 21.036 58.6773 19.128 58.8213 17.112C58.9893 15.096 59.1333 13.524 59.2533 12.396C59.3973 11.268 59.6853 10.704 60.1173 10.704C61.0293 10.704 61.9053 11.088 62.7453 11.856C63.6093 12.6 64.0413 13.284 64.0413 13.908C64.0413 15.324 63.5253 17.796 62.4933 21.324C64.1733 17.316 65.5893 14.604 66.7413 13.188C67.9653 11.724 69.1413 10.992 70.2693 10.992C70.8933 10.992 71.6613 11.568 72.5733 12.72C73.5093 13.872 73.9773 14.952 73.9773 15.96C73.9773 16.944 73.9653 17.808 73.9413 18.552C74.6853 16.68 75.8133 14.952 77.3253 13.368C78.8373 11.784 80.2533 10.992 81.5733 10.992ZM102.969 17.724C102.969 18.9 102.165 19.956 100.557 20.892C98.9734 21.828 97.3414 22.296 95.6614 22.296C93.9814 22.296 92.6014 22.176 91.5214 21.936C91.3054 22.584 91.1974 23.232 91.1974 23.88C91.1974 24.528 91.3054 24.996 91.5214 25.284C91.7374 25.548 92.2774 25.68 93.1414 25.68C94.9414 25.68 96.4774 25.512 97.7494 25.176C99.0454 24.84 99.7174 24.672 99.7654 24.672C100.749 24.672 101.241 24.996 101.241 25.644C101.241 26.58 100.461 27.468 98.9014 28.308C97.3654 29.148 95.5774 29.568 93.5374 29.568C91.5214 29.568 89.9014 28.932 88.6774 27.66C87.4534 26.388 86.8414 24.888 86.8414 23.16C86.8414 21.408 87.3454 19.584 88.3534 17.688C89.3854 15.792 90.6694 14.208 92.2054 12.936C93.7414 11.64 95.2654 10.992 96.7774 10.992C98.3134 10.992 99.7294 11.748 101.025 13.26C102.321 14.748 102.969 16.236 102.969 17.724ZM98.7934 17.148C98.7934 16.908 98.5414 16.56 98.0374 16.104C97.5334 15.648 97.0534 15.42 96.5974 15.42C96.1654 15.42 95.6014 15.744 94.9054 16.392C94.2094 17.016 93.5494 17.832 92.9254 18.84C93.1414 18.864 93.4534 18.876 93.8614 18.876C97.1494 18.876 98.7934 18.3 98.7934 17.148ZM109.748 24.996L117.596 24.708C118.1 24.708 118.544 24.828 118.928 25.068C119.312 25.284 119.504 25.62 119.504 26.076C119.504 27.204 118.436 28.08 116.3 28.704C114.164 29.304 111.512 29.604 108.344 29.604C107.192 29.604 106.1 29.088 105.068 28.056C104.036 27.024 103.52 26.184 103.52 25.536C103.52 24.864 104.132 24.024 105.356 23.016C106.58 22.008 107.912 21.084 109.352 20.244C110.816 19.38 112.16 18.564 113.384 17.796C114.608 17.004 115.22 16.476 115.22 16.212C115.22 15.948 114.572 15.816 113.276 15.816C111.98 15.816 110.924 15.888 110.108 16.032C109.292 16.176 108.632 16.248 108.128 16.248C107.624 16.248 107.048 15.84 106.4 15.024C105.752 14.184 105.428 13.524 105.428 13.044C105.428 12.372 106.028 11.868 107.228 11.532C108.452 11.172 109.808 10.992 111.296 10.992C112.784 10.992 114.404 11.196 116.156 11.604C116.948 11.82 117.704 12.432 118.424 13.44C119.168 14.448 119.54 15.228 119.54 15.78C119.54 16.788 119.012 17.856 117.956 18.984C116.924 20.088 115.784 21.012 114.536 21.756C113.288 22.5 112.136 23.184 111.08 23.808C110.048 24.408 109.532 24.768 109.532 24.888C109.532 24.96 109.604 24.996 109.748 24.996Z" fill="black"/>
</svg>
